<?xml version="1.0"?>
<svg width="555" height="555" xmlns="http://www.w3.org/2000/svg" xmlns:svg="http://www.w3.org/2000/svg" version="1.1">

 <g class="layer">
  <title>Layer 1</title>
  <path d="m161,103c10.07,0.34 19.37,2.22 29,5c1.26,0.36 2.52,0.72 3.82,1.09c13.14,4.07 24.59,10.09 35.18,18.91c0.99,0.66 1.98,1.32 3,2c-0.18,-0.62 -0.36,-1.24 -0.55,-1.88c-0.82,-2.81 -1.64,-5.62 -2.45,-8.43c-0.29,-0.98 -0.57,-1.96 -0.87,-2.96c-0.4,-1.41 -0.4,-1.41 -0.82,-2.84c-0.25,-0.87 -0.5,-1.73 -0.76,-2.62c-0.55,-2.27 -0.55,-2.27 -0.55,-5.27c15.11,-2.63 29.95,-3.31 45.25,-3.31c0.88,-0.01 1.75,-0.01 2.66,-0.01c22.63,-0.05 44.44,2.76 66.47,7.88c0.91,0.21 1.82,0.42 2.75,0.64c0.85,0.2 1.7,0.41 2.58,0.62c0.76,0.18 1.51,0.36 2.29,0.54c2,0.64 2,0.64 5,2.64c-0.57,6.02 -2.35,11.11 -4.62,16.69c-0.36,0.87 -0.71,1.75 -1.08,2.65c-2.86,6.95 -6.2,13.35 -10.3,19.66c0.58,0.25 1.16,0.5 1.76,0.76c8.34,4.62 13.62,14.8 17.24,23.24c0,1.32 0,2.64 0,4c3.15,-0.28 6.29,-0.58 9.44,-0.87c0.88,-0.08 1.75,-0.16 2.66,-0.24c12.21,-1.13 12.21,-1.13 22.78,-6.95c5.19,-4.09 8.39,-5.5 15.12,-4.94c7.01,2.71 9.8,7.37 13,14c4.7,11.59 6.64,27.07 2,39c-4.7,10.26 -11.67,16.02 -22.06,20.05c-5.53,1.79 -11.22,2.72 -16.94,3.7c-1.23,0.22 -2.45,0.44 -3.71,0.67c-8.9,1.58 -8.9,1.58 -11.29,1.58c-0.06,0.8 -0.12,1.59 -0.18,2.41c-0.09,1.06 -0.17,2.12 -0.26,3.22c-0.12,1.56 -0.12,1.56 -0.24,3.16c-0.31,3.1 -0.77,6.14 -1.32,9.21c1.1,0.42 2.2,0.85 3.33,1.29c16.52,6.49 32.82,14.84 40.67,31.71c3.61,9.24 2.64,18.95 -1,28c-3.4,7.5 -7.82,13.5 -13.34,19.59c-1.9,2.22 -1.9,2.22 -1.52,4.59c0.86,1.97 0.86,1.97 2.49,4.07c1.88,3.77 1.49,6.82 0.37,10.75c-3.18,6.23 -8.57,11.21 -14.75,14.44c-6.35,1.1 -13.54,2 -19.25,-1.44c-1.53,5.11 -2.7,10.21 -3.75,15.44c-1.6,7.74 -3.36,15.44 -5.25,23.12c-0.24,0.99 -0.47,1.97 -0.72,2.99c-1.59,6.39 -3.67,12.4 -6.28,18.45c0.82,0.02 1.65,0.04 2.5,0.06c6.22,1.67 10,5.51 13.34,10.93c4.16,8.02 4.16,8.02 4.16,13.01c-2.97,0.66 -5.94,1.32 -9,2c-0.23,-0.66 -0.46,-1.33 -0.7,-2.01c-2.62,-7.09 -5.28,-11.66 -12.3,-14.99c0.43,0.81 0.87,1.62 1.31,2.45c0.56,1.07 1.12,2.14 1.69,3.24c0.56,1.05 1.11,2.11 1.69,3.2c1.28,3.03 1.6,4.87 1.31,8.11c-3.11,1.56 -6.4,1.19 -9.81,1.19c-1.18,0 -1.18,0 -2.38,0c-22.89,-0.22 -22.89,-0.22 -31.81,-3.19c-0.33,-14.19 -0.66,-28.38 -1,-43c-3.96,0.66 -7.92,1.32 -12,2c-1.98,0 -3.96,0 -6,0c-0.19,0.67 -0.38,1.34 -0.58,2.04c-2,4.16 -4.93,7.08 -8.11,10.4c-0.6,0.64 -1.2,1.28 -1.82,1.94c-3.94,4.18 -8.07,7.95 -12.49,11.62c1.12,2.83 2.28,5.61 3.56,8.38c1.43,3.6 2.05,6.77 2.44,10.62c-3.86,1.44 -6.9,2.11 -11,2c-0.22,-0.96 -0.22,-0.96 -0.45,-1.94c-1.64,-6.35 -3.86,-10.47 -8.55,-15.06c0.14,0.64 0.29,1.28 0.44,1.94c0.18,0.87 0.37,1.73 0.56,2.62c0.19,0.85 0.37,1.7 0.56,2.57c0.51,3.32 0.51,6.51 0.44,9.87c-30.29,0.85 -30.29,0.85 -40,-4c0.22,-0.97 0.44,-1.95 0.66,-2.95c2.23,-9.93 4.39,-19.86 6.53,-29.8c0.26,-1.21 0.52,-2.43 0.79,-3.68c0.25,-1.15 0.5,-2.3 0.75,-3.49c0.22,-1.03 0.44,-2.06 0.67,-3.11c1.01,-5 1.73,-9.7 1.7,-14.81c-0.01,-1.06 -0.01,-2.12 -0.01,-3.22c-0.01,-1.09 -0.02,-2.19 -0.03,-3.31c0,-1.12 -0.01,-2.24 -0.01,-3.39c-0.01,-2.75 -0.03,-5.49 -0.05,-8.24c-11.06,4.89 -17.38,9.62 -22,21c-1.3,4.46 -2.33,8.97 -3.37,13.5c-9.63,39.99 -9.63,39.99 -25.82,50.38c-5.55,3.3 -10.46,3.65 -16.81,3.12c-6.58,-2.19 -11.25,-6.82 -14.55,-12.82c-7.43,-17.07 -2.62,-35.44 3.55,-52.18c0.88,-2.08 1.79,-4.15 2.72,-6.21c0.46,-1.02 0.91,-2.04 1.38,-3.08c0.95,-2.09 1.91,-4.17 2.89,-6.24c1.26,-2.83 2.36,-5.44 3.01,-8.47c-1.66,-3.32 -1.66,-3.32 -4,-6c0.15,-6.32 2.77,-11.25 5.59,-16.81c0.45,-0.92 0.91,-1.85 1.38,-2.8c1.46,-2.95 2.93,-5.89 4.41,-8.83c1.46,-2.93 2.92,-5.87 4.38,-8.81c0.9,-1.83 1.81,-3.65 2.72,-5.47c2.5,-5 4.78,-9.96 6.52,-15.28c-0.83,-2.02 -0.83,-2.02 -2,-4c0.05,-2.91 0.22,-5.62 0.56,-8.5c0.14,-1.2 0.14,-1.2 0.28,-2.43c0.92,-6.93 3.07,-12.8 6.16,-19.07c0.47,-1.22 0.95,-2.43 1.44,-3.69c1.34,-2.85 2.76,-5.12 4.56,-7.68c2.16,-3.11 3.52,-5.81 4.56,-9.44c1.22,-4.1 2.71,-5.92 6.44,-8.19c1.33,-0.68 2.66,-1.34 4,-2c-0.93,-1.73 -0.93,-1.73 -1.87,-3.5c-3.1,-6.22 -4.13,-11.46 -4.13,-18.5c-3.96,1.98 -7.92,3.96 -12,6c-3.79,-5.06 -3.86,-7.88 -3,-14c2.84,-10.11 9.51,-22.51 17,-30c-0.82,-0.4 -1.64,-0.8 -2.49,-1.21c-7.91,-4.03 -14.22,-8.43 -20.51,-14.79c-0.64,-0.6 -1.27,-1.2 -1.93,-1.82c-13.22,-13.52 -15.52,-32.71 -15.51,-50.68c0.19,-9.53 1.83,-18.36 4.44,-27.5z" fill="#05100C" id="svg_2"/>
  <path d="m275,151c24.45,-0.67 45.38,3.03 64.05,19.96c2.67,2.8 4.28,5.56 5.95,9.04c-0.74,0.23 -1.47,0.46 -2.23,0.7c-8,2.67 -12.81,5.59 -16.77,13.3c0,0.66 0,1.32 0,2c0.65,-0.41 1.3,-0.82 1.98,-1.24c8.75,-5.4 14.75,-7.09 25.02,-6.76c-0.78,0.89 -1.57,1.77 -2.37,2.69c-3.35,4.02 -4.63,7 -4.63,12.31c0.45,-0.53 0.89,-1.06 1.36,-1.61c0.6,-0.71 1.2,-1.41 1.83,-2.14c0.89,-1.04 0.89,-1.04 1.79,-2.11c4.66,-4.94 7.46,-6.59 14.21,-6.85c1.3,-0.02 1.3,-0.02 2.62,-0.04c0.89,-0.03 1.77,-0.06 2.68,-0.09c2.17,-0.07 4.34,-0.12 6.51,-0.16c-0.56,0.98 -0.56,0.98 -1.14,1.98c-9.03,16.04 -9.03,16.04 -10.86,34.02c1.61,4.75 3.7,8.24 7,12c-27.4,7.21 -56.89,2.85 -82,-10c0,-0.66 0,-1.32 0,-2c2.31,-0.99 4.62,-1.98 7,-3c-2.43,-2.43 -4.35,-2.69 -7.71,-3.03c-5.64,0.07 -10.05,1.97 -14.29,5.59c-3.24,3.96 -3.26,6.34 -3,11.44c0.66,1.32 1.32,2.64 2,4c1.98,-2.64 3.96,-5.28 6,-8c0.99,0.5 0.99,0.5 2,1c0.47,1.69 0.85,3.41 1.19,5.13c3.19,13.46 10.14,28.85 21.81,36.87c6.35,3.76 12.75,3.78 20,3c3.34,-0.89 6.07,-2.18 9,-4c0.6,-0.34 1.2,-0.69 1.82,-1.04c7.36,-5.12 12.24,-16.39 14.18,-24.96c2.31,0 4.62,0 7,0c-0.99,12.83 -5.41,22.78 -14.62,31.69c-7.72,6.38 -16.21,9.12 -26.18,8.75c-5.05,-0.69 -9.57,-2.36 -14.2,-4.44c7.78,7.38 14.72,11.37 25.76,11.22c6.74,-0.67 13.13,-3.43 19.24,-6.22c11.32,22.63 13.08,49.52 5.82,73.56c-5.92,17.69 -19.08,31.59 -35.51,40.07c-8.02,3.97 -16.27,7.37 -25.31,7.37c0.33,-5.61 0.66,-11.22 1,-17c-0.82,1.75 -1.65,3.51 -2.5,5.31c-11.06,22.08 -27.96,39.1 -50.63,48.63c-1.14,0.49 -2.29,0.98 -3.47,1.49c-2.8,1.2 -5.6,2.39 -8.4,3.57c-1.45,-2.9 -0.57,-4.66 0.14,-7.79c0.27,-1.18 0.53,-2.36 0.8,-3.58c0.29,-1.26 0.58,-2.52 0.87,-3.82c4.65,-21.06 7.38,-39.43 0.9,-60.4c-7.06,-22.96 -2.65,-42.81 8.08,-63.93c1.36,-2.52 2.77,-5 4.21,-7.48c-0.62,0.19 -1.24,0.37 -1.88,0.57c-2.81,0.84 -5.62,1.67 -8.43,2.49c-1.47,0.44 -1.47,0.44 -2.96,0.9c-0.94,0.27 -1.88,0.54 -2.84,0.83c-0.87,0.25 -1.73,0.51 -2.62,0.77c-2.27,0.44 -2.27,0.44 -5.27,-0.56c0.99,-0.33 1.98,-0.66 3,-1c0.85,-2.63 0.85,-2.63 1.37,-5.75c1.2,-5.37 2.69,-7.41 6.63,-11.25c-0.01,-1.44 -0.08,-2.88 -0.19,-4.31c0.1,-2.34 0.1,-2.34 1.19,-4.69c4.73,-3.61 10.53,-5.77 16,-8c0.93,-0.4 1.87,-0.81 2.83,-1.22c2.17,-0.78 2.17,-0.78 5.17,-0.78c0,-0.66 0,-1.32 0,-2c-1.89,-0.56 -1.89,-0.56 -3.81,-1.12c-5.79,-1.91 -10.93,-4.84 -16.19,-7.88c1.93,-6.15 4.21,-12.01 6.87,-17.87c0.35,-0.79 0.7,-1.57 1.06,-2.38c1.52,-3.38 3.07,-6.74 4.7,-10.08c0.45,-0.92 0.91,-1.84 1.37,-2.79c0.39,-0.77 0.78,-1.54 1.19,-2.33c1.01,-2.7 1.01,-2.7 0.7,-6.28c-0.13,-5.07 1.76,-8.9 3.92,-13.39c0.36,-0.78 0.72,-1.55 1.08,-2.34c1.52,-3.27 3,-6.36 4.93,-9.41c1.28,-3.41 1.09,-4.72 0.57,-8.24c-0.85,-6.93 1.45,-11.92 4.3,-18.14c0.45,-1.04 0.89,-2.07 1.35,-3.14c2.37,-5.4 4.92,-10.56 7.96,-15.61z" fill="#FCFCFC" id="svg_3"/>
  <path d="m-4,24c17.43,0.31 37.26,10.59 50,22c1.31,1.13 1.31,1.13 2.64,2.29c8.11,7.5 13.15,16.06 18.36,25.71c0.99,-4.29 1.98,-8.58 3,-13c7.92,-0.99 7.92,-0.99 16,-2c-2,5.25 -4.03,10.49 -6.1,15.72c-0.77,1.95 -1.52,3.9 -2.27,5.85c-2.89,7.09 -2.89,7.09 -6.75,8.87c-1.43,0.28 -1.43,0.28 -2.88,0.56c-2.28,2.58 -3.67,5.23 -4.97,8.41c-0.34,0.82 -0.69,1.65 -1.04,2.5c-0.35,0.85 -0.69,1.71 -1.05,2.59c-0.7,1.7 -1.4,3.4 -2.1,5.09c-0.31,0.75 -0.61,1.5 -0.93,2.28c-0.3,0.7 -0.6,1.4 -0.91,2.13c-0.26,0.67 -0.53,1.34 -0.8,2.03c-1.2,1.97 -1.2,1.97 -3.64,3.84c-3.02,2.51 -4.03,4.59 -5.57,8.18c-0.77,1.76 -0.77,1.76 -1.55,3.56c-0.52,1.23 -1.04,2.47 -1.56,3.7c-0.53,1.21 -1.05,2.42 -1.59,3.67c-1.45,3.34 -2.87,6.68 -4.29,10.02c-0.62,1.45 -1.24,2.9 -1.87,4.36c-0.37,0.87 -0.74,1.74 -1.13,2.64c-3.64,-3.64 -3.16,-7.78 -3.19,-12.75c0.03,-5.46 0.53,-10.06 2.19,-15.25c-1.63,0.48 -3.25,0.96 -4.87,1.44c-0.91,0.26 -1.81,0.53 -2.75,0.81c-2.36,0.68 -2.36,0.68 -4.38,1.75c3.87,-13.65 15.69,-23.3 27,-31c-0.89,-0.17 -1.79,-0.34 -2.71,-0.52c-12.28,-2.46 -21.31,-5.88 -31.29,-13.48c-1.05,-0.76 -2.1,-1.53 -3.19,-2.31c-9.88,-9.45 -16.21,-23.06 -16.98,-36.74c-0.06,-3.32 -0.05,-6.63 -0.02,-9.95c0,-1.14 0,-2.29 0,-3.46c0.05,-8.4 0.05,-8.4 1.19,-9.54z" fill="#F9F9F9" id="svg_4" transform="translate(175, 93)"/>
  <path d="m-4,24c0.88,0 1.75,-0.01 2.66,-0.01c23.49,-0.05 46.61,2.31 69.09,9.32c-1.88,6.25 -4.27,11.9 -7.37,17.63c-0.57,1.06 -0.57,1.06 -1.14,2.15c-2.5,4.69 -5.32,8.96 -8.49,13.22c-5.47,-0.98 -10.93,-1.98 -16.37,-3.07c-25.04,-4.81 -48.65,-3.21 -73.63,1.07c-1.3,-4.29 -2.59,-8.58 -3.88,-12.87c-0.36,-1.21 -0.72,-2.41 -1.1,-3.65c-2.03,-6.78 -3.81,-13.5 -5.02,-20.48c15.11,-2.63 29.95,-3.31 45.25,-3.31z" fill="#D10A13" id="svg_5" transform="translate(275.25, 78.6875)"/>
  <path d="m-4,24c0.99,0.49 0.99,0.49 2,1c-0.34,0.81 -0.68,1.62 -1.02,2.46c-7.16,17.76 -7.35,34.85 -3.98,53.54c-0.81,0.31 -1.62,0.63 -2.45,0.95c-1.07,0.43 -2.14,0.86 -3.24,1.3c-1.58,0.63 -1.58,0.63 -3.2,1.27c-3.13,1.49 -5.44,3.29 -8.11,5.48c-0.66,0 -1.32,0 -2,0c-0.27,0.57 -0.54,1.15 -0.82,1.74c-1.58,3.02 -3.56,5.69 -5.55,8.46c-4.4,7.56 -6.38,15.47 -8.01,23.99c-2.94,14.35 -7.23,31.42 -19.18,41.06c-3.44,1.75 -3.44,1.75 -6.57,1.94c-5,-2.07 -7.13,-5.47 -9.18,-10.25c-3.57,-20.46 5.18,-38.69 13.31,-56.94c0.28,-0.67 0.56,-1.33 0.85,-2.02c0.74,-1.65 0.74,-1.65 2.15,-3.98c2.32,-0.41 4.66,-0.75 7,-1c2.49,-2.71 3.93,-5.74 5.42,-9.08c0.44,-0.99 0.89,-1.97 1.35,-2.99c0.47,-1.05 0.94,-2.1 1.42,-3.18c3.84,-8.51 7.78,-16.94 12.04,-25.25c1.17,-2.31 2.3,-4.65 3.38,-7c2.78,-5.98 4.59,-9.34 10.39,-12.5c0.3,-0.65 0.59,-1.29 0.89,-1.96c1.44,-2.66 2.78,-3.11 5.55,-4.23c0.78,-0.32 1.56,-0.64 2.37,-0.98c1.71,-0.65 3.45,-1.25 5.19,-1.83z" fill="#FAFAFA" id="svg_6" transform="translate(226, 298)"/>
  <path d="m220,379c0.99,3.3 1.98,6.6 3,10c-0.8,0.35 -1.59,0.7 -2.41,1.07c-10.04,4.67 -15.38,9.57 -19.59,19.93c-1.3,4.46 -2.33,8.97 -3.38,13.5c-9.62,39.99 -9.62,39.99 -25.81,50.38c-5.55,3.3 -10.46,3.65 -16.81,3.12c-6.58,-2.19 -11.25,-6.82 -14.55,-12.82c-7.9,-18.17 -1.99,-37.77 4.78,-55.38c1.27,-3.17 2.58,-6.33 3.89,-9.49c0.45,-1.08 0.89,-2.16 1.34,-3.28c0.43,-1.02 0.86,-2.05 1.3,-3.1c0.38,-0.93 0.76,-1.85 1.16,-2.8c1.08,-2.13 1.08,-2.13 3.08,-3.13c2.6,1 2.6,1 5.62,2.44c1.01,0.47 2.01,0.94 3.04,1.43c0.77,0.37 1.55,0.75 2.34,1.13c-1.19,3.09 -2.38,6.19 -3.57,9.28c-0.91,2.38 -1.82,4.75 -2.73,7.13c-0.63,1.62 -0.63,1.62 -1.26,3.28c-0.41,1.07 -0.82,2.14 -1.24,3.25c-1.09,2.77 -2.23,5.51 -3.39,8.25c-4.31,10.85 -6.17,23.88 -1.79,34.99c1.55,2.89 3.07,4.33 5.98,5.82c4.96,0 7.42,-1.74 11,-5c7.95,-11.28 11.94,-23.81 14.77,-37.19c2.82,-13.37 6.43,-27.19 17.95,-35.86c0.92,-0.56 1.83,-1.12 2.78,-1.7c0.92,-0.57 1.84,-1.14 2.78,-1.73c4.17,-2.33 6.89,-3.52 11.72,-3.52z" fill="#D10E16" id="svg_7"/>
  <path d="m-4,24c5.21,0.57 9.16,2.27 13.75,4.63c0.7,0.35 1.41,0.71 2.13,1.08c10.56,5.5 20.19,11.45 24.12,23.29c1.45,11.75 -2.09,21.15 -9,30.52c-2.84,3.52 -5.87,6.86 -8.98,10.16c-4.59,5.28 -5.47,8.5 -5.02,15.32c1.01,1.23 1.01,1.23 3.07,1.1c0.82,-0.01 1.64,-0.03 2.49,-0.04c0.83,-0.01 1.66,-0.02 2.51,-0.02c0.63,-0.02 1.27,-0.03 1.93,-0.04c-0.35,2.71 -0.68,3.75 -2.86,5.48c-8.3,4.51 -8.3,4.51 -13.14,3.52c-2.87,-1.72 -4.61,-2.86 -5.71,-6.08c-0.41,-4.12 0.18,-7.91 0.84,-11.98c0.1,-0.8 0.21,-1.61 0.32,-2.43c0.94,-5.94 0.94,-5.94 3.94,-8.73c0.86,-0.59 1.72,-1.18 2.61,-1.78c1.99,-2.57 1.99,-2.57 3.69,-5.37c0.58,-0.92 1.16,-1.84 1.76,-2.78c3.31,-6.09 4.48,-11.16 2.55,-17.85c-2.06,-4.08 -4.5,-6.48 -8.86,-7.98c-1.03,-0.32 -2.07,-0.63 -3.14,-0.96c-4.16,-1.52 -6.19,-2.84 -8.07,-6.79c-1.61,-4.01 -2.82,-8.09 -3.93,-12.27c-0.23,-0.67 -0.45,-1.34 -0.68,-2.03c-0.32,-1.97 -0.32,-1.97 1.62,-5.22c0.68,-0.91 1.36,-1.81 2.06,-2.75z" fill="#F7F8F8" id="svg_8" transform="translate(363, 252)"/>
  <path d="m-4,24c3.81,1.52 5.24,3.48 6.81,7.13c4.04,11.26 5.18,24.34 0.46,35.55c-3.31,5.55 -7.93,9.3 -13.77,11.95c-15.26,2.06 -15.26,2.06 -21.69,-2.5c-3.21,-4.82 -2.79,-9.38 -2,-15c2.83,-9.54 7.83,-18.26 14,-26c0.51,-0.67 1.01,-1.34 1.53,-2.02c3.93,-4.95 8.03,-8.85 14.66,-9.11z" fill="#F7F8F8" id="svg_9" transform="translate(408.188, 154.875)"/>
  <path d="m-4,24c15.55,1.94 29.35,12.87 39.15,24.57c6.66,8.98 10.07,18.25 9.85,29.43c-14.75,0.68 -26.37,-3.29 -37.41,-13.32c-9.6,-10.15 -12.69,-22.7 -12.72,-36.29c0.13,-2.39 0.13,-2.39 1.13,-4.39z" fill="#030D0A" id="svg_10" transform="translate(184, 104)"/>
  <path d="m-4,24c1.38,2.76 0.68,4.12 -0.04,7.1c-0.25,1.04 -0.49,2.08 -0.75,3.15c-1.12,4.54 -2.27,9.08 -3.43,13.61c-0.66,2.67 -1.25,5.34 -1.8,8.04c-1.51,6.71 -3.33,11.26 -9.08,15.19c-1.81,1.11 -3.65,2.13 -5.53,3.11c-3.13,1.67 -5.68,3.49 -8.37,5.8c-0.04,-0.96 -0.04,-0.96 -0.08,-1.94c-0.11,-2.96 -0.24,-5.91 -0.36,-8.87c-0.06,-1.51 -0.06,-1.51 -0.12,-3.05c-0.28,-6.74 -0.76,-13.43 -1.44,-20.14c1.45,-0.73 1.45,-0.73 2.93,-1.47c10.73,-5.48 19.73,-11.75 28.07,-20.53z" fill="#F4F5F5" id="svg_11" transform="translate(350, 370)"/>
  <path d="m302,45c3.13,1.81 3.13,1.81 5,5c1.84,8.7 -1.59,17.06 -4.38,25.17c-0.81,2.4 -1.5,4.83 -2.18,7.27c-1.4,4.71 -3.33,9.12 -5.44,13.56c-2.02,-3.02 -2.62,-4.99 -3.44,-8.48c-0.38,-1.62 -0.38,-1.62 -0.77,-3.28c-0.39,-1.7 -0.39,-1.7 -0.79,-3.43c-0.52,-2.22 -1.04,-4.44 -1.56,-6.67c-0.25,-1.05 -0.49,-2.11 -0.75,-3.2c-0.59,-2.5 -1.21,-4.99 -1.85,-7.48c-2.21,-9.11 -2.21,-9.11 0.21,-13.26c4.62,-5.71 8.93,-6.11 15.95,-5.2z" fill="#050E0B" id="svg_12"/>
  <path d="m-4,24c10.32,6.51 16.87,19.7 19.53,31.32c0.23,1.55 0.36,3.11 0.47,4.68c-3.68,-2.33 -7.03,-4.83 -10.37,-7.62c-5.13,-4.18 -10.6,-7.6 -16.27,-10.97c-0.67,-0.4 -1.33,-0.8 -2.02,-1.21c-0.59,-0.35 -1.19,-0.71 -1.8,-1.07c-1.54,-1.13 -1.54,-1.13 -3.54,-4.13c-0.67,-6.12 -0.67,-6.12 1.81,-9.37c4.2,-3.13 7.25,-2.93 12.19,-1.63z" fill="#040D0B" id="svg_13" transform="translate(265, 34)"/>
  <path d="m-4,24c2.56,1.63 2.56,1.63 4,4c0.61,3.6 0.46,5.3 -1.56,8.36c-3.01,3.26 -6.3,5.48 -10,7.89c-6.1,4.07 -11.81,8.32 -17.4,13.07c-2.04,1.68 -2.04,1.68 -4.04,2.68c2.03,-12.09 7.77,-27.4 17.95,-35.02c3.72,-1.78 7.07,-1.96 11.05,-0.98z" fill="#050D0B" id="svg_14" transform="translate(344, 37)"/>
  <path d="m-4,24c3.05,2.56 4.74,4.21 6,8c0.07,1.56 0.09,3.13 0.06,4.69c-0.01,0.81 -0.02,1.61 -0.02,2.45c-0.02,0.61 -0.03,1.23 -0.04,1.86c-0.99,-0.33 -1.98,-0.66 -3,-1c-1.39,-0.07 -2.79,-0.09 -4.19,-0.06c-1.26,0.02 -2.51,0.04 -3.81,0.06c2.64,2.97 5.28,5.94 8,9c-0.33,0.66 -0.66,1.32 -1,2c-0.62,-0.36 -1.24,-0.72 -1.88,-1.09c-9.33,-4.9 -18.89,-5.28 -29.12,-2.91c1.3,-2.9 2.51,-4.99 5,-7c2.7,-0.73 2.7,-0.73 5.69,-1.19c0.99,-0.16 1.99,-0.31 3.01,-0.48c0.76,-0.11 1.52,-0.22 2.3,-0.33c0.06,-1.22 0.12,-2.43 0.19,-3.69c0.54,-4.48 2.27,-6.46 5.81,-9.31c2.64,-1.32 4.06,-1.41 7,-1z" fill="#08120F" id="svg_15" transform="translate(305, 168)"/>
  <path d="m-4,24c10.5,-0.77 18.03,-0.14 27,6c1.37,1.29 2.72,2.62 4,4c-1.01,2.94 -1.96,3.98 -4.56,5.75c-4.36,1.58 -7.87,2.19 -12.44,1.25c-5.97,-2.97 -10.75,-8.23 -14,-14c0,-0.99 0,-1.98 0,-3z" fill="#F8F8F9" id="svg_16" transform="translate(304, 231)"/>
  <path d="m-4,24c4.06,2.42 7.48,4.89 9.84,9.06c0.9,3.64 1.51,7.28 2,11c-0.44,-0.4 -0.87,-0.8 -1.32,-1.21c-7.03,-6.25 -12.06,-8.37 -21.61,-8.15c-5.45,0.64 -8.45,3.33 -12.07,7.36c0.58,-6.87 1.66,-11.1 7,-15.75c4.89,-3.67 10.46,-4.79 16.16,-2.31z" fill="#0B1411" id="svg_17" transform="translate(306.16, 139.941)"/>
  <path d="m-4,24c1.94,0.31 1.94,0.31 4,1c1.34,4.03 0.22,5.18 -1.65,8.93c-0.29,0.59 -0.57,1.18 -0.87,1.78c-0.62,1.26 -1.25,2.52 -1.88,3.77c-1.63,3.27 -3.24,6.56 -4.85,9.84c-0.48,0.98 -0.48,0.98 -0.97,1.98c-2.84,5.78 -5.53,11.63 -8.16,17.51c-0.37,0.84 -0.74,1.68 -1.13,2.55c-0.83,1.88 -1.66,3.76 -2.49,5.64c-1.65,-0.66 -3.3,-1.32 -5,-2c0.55,-4.9 2.14,-8.8 4.39,-13.13c0.34,-0.67 0.68,-1.34 1.03,-2.03c1.08,-2.14 2.17,-4.27 3.27,-6.4c1.42,-2.79 2.84,-5.59 4.26,-8.38c0.52,-1.02 0.52,-1.02 1.04,-2.05c3.17,-6.26 6.13,-12.61 9.01,-19.01z" fill="#F0F1F1" id="svg_18" transform="translate(187, 304)"/>
  <path d="m-4,24c6.19,2.75 11.34,7.3 15,13c0.5,3.38 0.51,4.98 -1,8c-3.17,-1.06 -5.32,-2.25 -8,-4.31c-4.3,-3.23 -9.17,-4.8 -14.21,-6.58c-2.79,-1.11 -2.79,-1.11 -4.79,-3.11c0.15,-3 0.63,-4.56 2.56,-6.87c3.65,-1.69 6.71,-1.22 10.44,-0.13z" fill="#F4F5F5" id="svg_19" transform="translate(206, 259)"/>
  <path d="m-4,24c7.31,3.36 12.02,8.54 15,16c0.43,2.88 0.33,5.07 0,8c-3.05,-1.35 -4.99,-2.88 -7.31,-5.25c-5.62,-5.1 -12.65,-7.25 -19.69,-9.75c0.53,-3.41 0.75,-4.73 3.19,-7.31c3.49,-2.1 4.79,-2.46 8.81,-1.69z" fill="#F4F5F5" id="svg_20" transform="translate(212, 242)"/>
  <path d="m-4,24c1.21,0.03 1.21,0.03 2.44,0.06c-0.66,5.15 -2.91,9.53 -5.07,14.19c-0.81,1.78 -1.62,3.56 -2.44,5.35c-0.41,0.9 -0.82,1.81 -1.25,2.74c-1.95,4.27 -3.84,8.56 -5.74,12.85c-3.37,7.61 -3.37,7.61 -4.5,9.87c-1.65,-0.33 -3.3,-0.66 -5,-1c0.62,-3.94 1.84,-7.15 3.54,-10.75c0.52,-1.1 1.04,-2.21 1.57,-3.34c0.54,-1.15 1.08,-2.29 1.64,-3.47c3.61,-7.66 7.1,-15.33 10.28,-23.19c1.39,-3.23 1.39,-3.23 4.53,-3.31z" fill="#F0F1F1" id="svg_21" transform="translate(237.562, 193.938)"/>
  <path d="m-4,24c0.58,0.23 1.16,0.45 1.75,0.69c0.41,9.02 0.39,15.74 -5.44,23.06c-2.56,1.94 -2.56,1.94 -4.81,1.81c-1.75,-0.87 -1.75,-0.87 -2.75,-1.87c-1.01,-7.96 0.34,-14.42 5,-21c3.24,-3.11 3.24,-3.11 6.25,-2.69z" fill="#07110E" id="svg_22" transform="translate(399.25, 174.312)"/>
  <path d="m-4,24c1.62,2.76 1.52,4.69 1.06,7.81c-2.94,2.87 -5.16,3.4 -9.2,3.51c-0.98,0.04 -1.96,0.08 -2.97,0.11c-1.02,0.02 -2.03,0.05 -3.08,0.07c-1.03,0.03 -2.06,0.07 -3.12,0.1c-2.54,0.09 -5.09,0.16 -7.63,0.21c2.05,-3.75 4.24,-6.42 7.44,-9.25c0.76,-0.68 1.52,-1.37 2.31,-2.08c4.61,-3.42 10.2,-3.54 15.19,-0.48z" fill="#07100D" id="svg_23" transform="translate(359.938, 67.1875)"/>
  <path d="m-4,24c7.28,0.07 13.52,3.09 18.69,8.19c0.62,0.72 1.24,1.44 1.87,2.19c-0.66,1.32 -1.32,2.64 -2,4c-7.98,-0.31 -16.39,-1.17 -22.76,-6.47c-1.76,-2.19 -1.52,-3.81 -1.24,-6.53c1.6,-1.6 3.23,-1.29 5.44,-1.38z" fill="#F5F5F6" id="svg_24" transform="translate(193.438, 274.625)"/>
  <path d="m-4,24c4.13,1.57 7.32,4.46 10.13,7.81c1.23,2.73 1.23,2.73 2,5c-3.46,-0.11 -6.92,-0.24 -10.38,-0.38c-0.98,-0.03 -1.97,-0.06 -2.98,-0.09c-1.41,-0.06 -1.41,-0.06 -2.85,-0.12c-0.87,-0.03 -1.74,-0.06 -2.64,-0.09c-2.15,-0.32 -2.15,-0.32 -4.15,-2.32c-0.44,-2.88 -0.44,-2.88 0,-6c3.14,-3.83 5.96,-4.71 10.87,-3.81z" fill="#050D0B" id="svg_25" transform="translate(245.871, 60.1914)"/>
  <path d="m-4,24c3,1 3,1 4,3c1,13.86 1,13.86 -3,19c-2.19,0.88 -2.19,0.88 -4,1c-2.36,-3.69 -2.35,-6.69 -2,-11c1.14,-4.42 2.46,-8.19 5,-12z" fill="#07100E" id="svg_26" transform="translate(410, 171)"/>
  <path d="m-4,24c0.99,0.33 1.98,0.66 3,1c-3.3,7.59 -6.6,15.18 -10,23c-0.99,0 -1.98,0 -3,0c0.67,-5.14 2.88,-9.58 5,-14.25c0.55,-1.24 0.55,-1.24 1.12,-2.51c2.74,-6.1 2.74,-6.1 3.88,-7.24z" fill="#E5E6E5" id="svg_27" transform="translate(252, 164)"/>
  <path d="m-4,24c5,2 5,2 6,4c0.41,4.64 -0.23,7.23 -3,11c-0.33,0 -0.66,0 -1,0c-0.66,-4.95 -1.32,-9.9 -2,-15z" fill="#E4E5E5" id="svg_28" transform="translate(369, 290)"/>
  <path d="m-4,24c1.65,0 3.3,0 5,0c-1.98,6.6 -3.96,13.2 -6,20c-1.1,-4.4 -0.69,-7.86 -0.06,-12.25c0.1,-0.75 0.2,-1.49 0.3,-2.26c0.25,-1.83 0.5,-3.66 0.76,-5.49z" fill="#1A0707" id="svg_29" transform="translate(307, 81)"/>
  <path d="m-4,24c1.32,0 2.64,0 4,0c0,6.6 0,13.2 0,20c-0.33,0 -0.66,0 -1,0c-0.5,-2.58 -1,-5.17 -1.5,-7.75c-0.14,-0.73 -0.29,-1.46 -0.43,-2.21c-0.66,-3.43 -1.07,-6.53 -1.07,-10.04z" fill="#190A08" id="svg_30" transform="translate(256, 79)"/>
  <path d="m-4,24c4.95,1.65 9.9,3.3 15,5c-0.33,0.66 -0.66,1.32 -1,2c-4.66,0.37 -7.95,0.62 -12.06,-1.81c-1.94,-2.19 -1.94,-2.19 -1.94,-5.19z" fill="#E9EAEA" id="svg_31" transform="translate(190, 291)"/>
  <path d="m-4,24c1.32,0.33 2.64,0.66 4,1c-2.64,5.61 -5.28,11.22 -8,17c-1.14,-4.57 -0.55,-6.29 0.87,-10.69c0.37,-1.16 0.74,-2.32 1.12,-3.51c1.01,-2.8 1.01,-2.8 2.01,-3.8z" fill="#0F0706" id="svg_32" transform="translate(331, 85)"/>
  <path d="m-4,24c1.32,0.33 2.64,0.66 4,1c-0.99,6.6 -1.98,13.2 -3,20c-0.33,0 -0.66,0 -1,0c0,-6.93 0,-13.86 0,-21z" fill="#130908" id="svg_33" transform="translate(283, 79)"/>
  <path d="m-4,24c0.66,0.33 1.32,0.66 2,1c-1.32,2.97 -2.64,5.94 -4,9c-0.99,0 -1.98,0 -3,0c0.55,-3.33 1.24,-6.1 3,-9c0.66,-0.33 1.32,-0.66 2,-1z" fill="#DBDDDC" id="svg_34" transform="translate(247, 178)"/>
  <path d="m-4,24c0.99,0 1.98,0 3,0c0,3.3 0,6.6 0,10c-3.01,-3.01 -2.6,-5.82 -3,-10z" fill="#040706" id="svg_35" transform="translate(256, 80)"/>
  <path d="m-4,24c0.99,0 1.98,0 3,0c-1.16,3.91 -2.36,6.87 -5,10c0.54,-3.38 1.11,-6.7 2,-10z" fill="#270707" id="svg_36" transform="translate(328, 93)"/>
  <path d="m-4,24c1.98,0.66 3.96,1.32 6,2c0.33,1.65 0.66,3.3 1,5c-1.17,-0.98 -2.34,-1.96 -3.5,-2.94c-0.65,-0.54 -1.3,-1.09 -1.97,-1.65c-0.5,-0.47 -1.01,-0.93 -1.53,-1.41c0,-0.33 0,-0.66 0,-1z" fill="#262A29" id="svg_37" transform="translate(305, 260)"/>
  <path d="m-4,24c1,3 1,3 0.25,5.13c-1.25,1.87 -1.25,1.87 -4.25,2.87c0.5,-3.69 1.1,-5.6 4,-8z" fill="#F1F2F2" id="svg_38" transform="translate(250, 171)"/>
  <path d="m-4,24c0.66,0.33 1.32,0.66 2,1c-1.48,1.48 -1.48,1.48 -3,3c0.33,0.66 0.66,1.32 1,2c-1.65,0.33 -3.3,0.66 -5,1c1.29,-2.88 2.66,-4.87 5,-7z" fill="#1A1E1E" id="svg_39" transform="translate(281, 184)"/>
 </g>
</svg>